# xmcd
#
# Track frame offsets:
#	150
#	3806
#	16078
#	26330
#	30090
#	35166
#	38561
#	44320
#	45625
#	54863
#	56701
#	59741
#	63776
#	83178
#	94647
#	98690
#	130151
#	135358
#	153776
#	168683
#	197365
#	204702
#	211221
#	223834
#	250880
#	274678
#	289227
#	301219
#	307676
#	316329
#
# Disc length: 4351 seconds
#
# Revision: 0
# Processed by: cddbd v1.5.1PL0 Copyright (c) Steve Scherf et al.
# Submitted via: dBpowerAMP V4.0
#
DISCID=8710fd1e
DTITLE=Various Artist - Field Recordings, Vol. 3: Mississippi (1936-1942) document records
DYEAR=1900
DGENRE=blues
TTITLE0=Calling Trains 
TTITLE1=Lead Me to the Rock - Wash Dennis
TTITLE2=Rosie (Big Leg Rosie) - Jeff Webb 
TTITLE3=Mississippi Sounding Calls [A-1]
TTITLE4=Mississippi Sounding Calls [B-1] 
TTITLE5=Arwhoolie (Cornfield Holler) 
TTITLE6=Oh the Sun's Goin' Down and I Won't Be Here Long (Quittin' Time Song)/
TTITLE7=Mealtime Call 
TTITLE8=Heaving the Lead Line (Calls and Song to Pilot) - Sam Hazel 
TTITLE9=Little Girl, Little Girl - Ora Dell Graham 
TTITLE10=(Jes' A) Pullin' the Skiff - Ora Dell Graham 
TTITLE11=Shortenin' Bread - Ora Dell Graham 
TTITLE12=Keghouse Blues - Thomas "Jaybird" Jones 
TTITLE13=Interview: How Long, Pts. 1 and 2 - Thomas "Jaybird" Jones 
TTITLE14=Worried Life Blues - Thomas "Jaybird" Jones 
TTITLE15=Interview: Fo' Day Blues - Thomas "Jaybird" Jones 
TTITLE16=Unidentified Ragtime Tune/Interview - Thomas "Jaybird" Jones 
TTITLE17=Walking Billy - Thomas "Jaybird" Jones 
TTITLE18=Unidentified Ragtime Tune/Interview - Thomas "Jaybird" Jones 
TTITLE19=Interview (1, 2, 3) - Thomas "Jaybird" Jones 
TTITLE20=Corrina - Thomas "Jaybird" Jones 
TTITLE21=Careless Love - Thomas "Jaybird" Jones 
TTITLE22=Angel Child 
TTITLE23=Carrier Railroad (The Carrier Line) - Sid Hemphill 
TTITLE24=Arkansas Traveller - Sid Hemphill 
TTITLE25=Devil's Dream - Sid Hemphill 
TTITLE26=Leather Britches - Sid Hemphill 
TTITLE27=Rice Straw - Sid Hemphill 
TTITLE28=After the Ball Is Over - Sid Hemphill 
TTITLE29=Soon in the Mornin' - Sid Hemphill 
EXTD=
EXTT0=
EXTT1=
EXTT2=
EXTT3=
EXTT4=
EXTT5=
EXTT6=
EXTT7=
EXTT8=
EXTT9=
EXTT10=
EXTT11=
EXTT12=
EXTT13=
EXTT14=
EXTT15=
EXTT16=
EXTT17=
EXTT18=
EXTT19=
EXTT20=
EXTT21=
EXTT22=
EXTT23=
EXTT24=
EXTT25=
EXTT26=
EXTT27=
EXTT28=
EXTT29=
PLAYORDER=
